<mxfile host="app.diagrams.net" agent="Mozilla/5.0 (Windows NT 10.0; Win64; x64) AppleWebKit/537.36 (KHTML, like Gecko) Chrome/131.0.0.0 Safari/537.36" version="24.8.6">
  <diagram name="Page-1" id="51FKFH6LMKCR1eOPsGWw">
    <mxGraphModel dx="1434" dy="772" grid="1" gridSize="10" guides="1" tooltips="1" connect="1" arrows="1" fold="1" page="1" pageScale="1" pageWidth="850" pageHeight="1100" math="0" shadow="0">
      <root>
        <mxCell id="0" />
        <mxCell id="1" parent="0" />
        <mxCell id="Ktrcd8oHnELW16AmMnb6-1" value="Data Source&lt;div&gt;(NAICS Codes)&lt;/div&gt;" style="rounded=0;whiteSpace=wrap;html=1;" vertex="1" parent="1">
          <mxGeometry x="20" y="250" width="130" height="70" as="geometry" />
        </mxCell>
        <mxCell id="Ktrcd8oHnELW16AmMnb6-20" value="" style="edgeStyle=orthogonalEdgeStyle;rounded=0;orthogonalLoop=1;jettySize=auto;html=1;" edge="1" parent="1" source="Ktrcd8oHnELW16AmMnb6-5" target="Ktrcd8oHnELW16AmMnb6-1">
          <mxGeometry relative="1" as="geometry" />
        </mxCell>
        <mxCell id="Ktrcd8oHnELW16AmMnb6-5" value="Temp Storage" style="shape=cylinder3;whiteSpace=wrap;html=1;boundedLbl=1;backgroundOutline=1;size=15;" vertex="1" parent="1">
          <mxGeometry x="240" y="245" width="60" height="80" as="geometry" />
        </mxCell>
        <mxCell id="Ktrcd8oHnELW16AmMnb6-6" style="edgeStyle=orthogonalEdgeStyle;rounded=0;orthogonalLoop=1;jettySize=auto;html=1;entryX=0;entryY=0.5;entryDx=0;entryDy=0;entryPerimeter=0;" edge="1" parent="1" source="Ktrcd8oHnELW16AmMnb6-1" target="Ktrcd8oHnELW16AmMnb6-5">
          <mxGeometry relative="1" as="geometry" />
        </mxCell>
        <mxCell id="Ktrcd8oHnELW16AmMnb6-7" value="Data Source&lt;div&gt;(PPP Loans)&lt;/div&gt;" style="rounded=0;whiteSpace=wrap;html=1;" vertex="1" parent="1">
          <mxGeometry x="20" y="365" width="130" height="70" as="geometry" />
        </mxCell>
        <mxCell id="Ktrcd8oHnELW16AmMnb6-8" style="edgeStyle=orthogonalEdgeStyle;rounded=0;orthogonalLoop=1;jettySize=auto;html=1;entryX=0;entryY=0.5;entryDx=0;entryDy=0;entryPerimeter=0;" edge="1" source="Ktrcd8oHnELW16AmMnb6-7" target="Ktrcd8oHnELW16AmMnb6-9" parent="1">
          <mxGeometry relative="1" as="geometry" />
        </mxCell>
        <mxCell id="Ktrcd8oHnELW16AmMnb6-9" value="Temp Storage" style="shape=cylinder3;whiteSpace=wrap;html=1;boundedLbl=1;backgroundOutline=1;size=15;" vertex="1" parent="1">
          <mxGeometry x="240" y="360" width="60" height="80" as="geometry" />
        </mxCell>
        <mxCell id="Ktrcd8oHnELW16AmMnb6-10" value="Data Source&lt;div&gt;(GDP)&lt;/div&gt;" style="rounded=0;whiteSpace=wrap;html=1;" vertex="1" parent="1">
          <mxGeometry x="20" y="475" width="130" height="70" as="geometry" />
        </mxCell>
        <mxCell id="Ktrcd8oHnELW16AmMnb6-11" style="edgeStyle=orthogonalEdgeStyle;rounded=0;orthogonalLoop=1;jettySize=auto;html=1;entryX=0;entryY=0.5;entryDx=0;entryDy=0;entryPerimeter=0;" edge="1" source="Ktrcd8oHnELW16AmMnb6-10" target="Ktrcd8oHnELW16AmMnb6-12" parent="1">
          <mxGeometry relative="1" as="geometry" />
        </mxCell>
        <mxCell id="Ktrcd8oHnELW16AmMnb6-12" value="Temp Storage" style="shape=cylinder3;whiteSpace=wrap;html=1;boundedLbl=1;backgroundOutline=1;size=15;" vertex="1" parent="1">
          <mxGeometry x="240" y="470" width="60" height="80" as="geometry" />
        </mxCell>
        <mxCell id="Ktrcd8oHnELW16AmMnb6-19" style="edgeStyle=orthogonalEdgeStyle;rounded=0;orthogonalLoop=1;jettySize=auto;html=1;exitX=1;exitY=0.5;exitDx=0;exitDy=0;exitPerimeter=0;" edge="1" parent="1" source="Ktrcd8oHnELW16AmMnb6-14" target="Ktrcd8oHnELW16AmMnb6-18">
          <mxGeometry relative="1" as="geometry" />
        </mxCell>
        <mxCell id="Ktrcd8oHnELW16AmMnb6-14" value="Data Mart" style="shape=cylinder3;whiteSpace=wrap;html=1;boundedLbl=1;backgroundOutline=1;size=15;" vertex="1" parent="1">
          <mxGeometry x="395" y="360" width="60" height="80" as="geometry" />
        </mxCell>
        <mxCell id="Ktrcd8oHnELW16AmMnb6-15" style="edgeStyle=orthogonalEdgeStyle;rounded=0;orthogonalLoop=1;jettySize=auto;html=1;exitX=1;exitY=0.5;exitDx=0;exitDy=0;exitPerimeter=0;entryX=0;entryY=0.5;entryDx=0;entryDy=0;entryPerimeter=0;" edge="1" parent="1" source="Ktrcd8oHnELW16AmMnb6-5" target="Ktrcd8oHnELW16AmMnb6-14">
          <mxGeometry relative="1" as="geometry" />
        </mxCell>
        <mxCell id="Ktrcd8oHnELW16AmMnb6-16" style="edgeStyle=orthogonalEdgeStyle;rounded=0;orthogonalLoop=1;jettySize=auto;html=1;entryX=0;entryY=0.5;entryDx=0;entryDy=0;entryPerimeter=0;" edge="1" parent="1" source="Ktrcd8oHnELW16AmMnb6-9" target="Ktrcd8oHnELW16AmMnb6-14">
          <mxGeometry relative="1" as="geometry" />
        </mxCell>
        <mxCell id="Ktrcd8oHnELW16AmMnb6-17" style="edgeStyle=orthogonalEdgeStyle;rounded=0;orthogonalLoop=1;jettySize=auto;html=1;entryX=0;entryY=0.5;entryDx=0;entryDy=0;entryPerimeter=0;" edge="1" parent="1" source="Ktrcd8oHnELW16AmMnb6-12" target="Ktrcd8oHnELW16AmMnb6-14">
          <mxGeometry relative="1" as="geometry" />
        </mxCell>
        <mxCell id="Ktrcd8oHnELW16AmMnb6-18" value="Visualization" style="shape=parallelogram;perimeter=parallelogramPerimeter;whiteSpace=wrap;html=1;fixedSize=1;" vertex="1" parent="1">
          <mxGeometry x="550" y="290" width="120" height="60" as="geometry" />
        </mxCell>
      </root>
    </mxGraphModel>
  </diagram>
</mxfile>
